<?xml version="1.0" encoding="iso-8859-1"?>
<!-- Generator: Adobe Illustrator 19.0.0, SVG Export Plug-In . SVG Version: 6.00 Build 0)  -->
<svg version="1.1" id="Capa_1" xmlns="http://www.w3.org/2000/svg" xmlns:xlink="http://www.w3.org/1999/xlink" x="0px" y="0px"
	 viewBox="0 0 490 490" style="enable-background:new 0 0 490 490;" xml:space="preserve">
<path d="M379.519,316.585h66.976V295.01h-77.056L302.39,151.497c9.508-12.274,15.182-27.667,15.182-44.394
	c0-36.414-26.821-66.558-61.785-71.77V0h-21.575v35.333c-34.963,5.211-61.785,35.355-61.785,71.77
	c0,16.727,5.674,32.12,15.182,44.393L120.561,295.01H43.505v21.575h66.976L33.73,480.866L53.276,490l81.019-173.415h99.918v32.041
	h21.575v-32.041h99.917L436.724,490l19.547-9.134L379.519,316.585z M245.001,56.1c28.168,0,51.003,22.835,51.003,51.002
	s-22.835,51.003-51.003,51.003c-28.168,0-51.002-22.835-51.002-51.003S216.833,56.1,245.001,56.1z M255.788,295.01v-32.046h-21.575
	v32.046h-89.838l59.768-127.93c11.639,7.944,25.703,12.594,40.857,12.594c15.154,0,29.218-4.65,40.857-12.594l59.768,127.929
	H255.788z"/>
<g>
</g>
<g>
</g>
<g>
</g>
<g>
</g>
<g>
</g>
<g>
</g>
<g>
</g>
<g>
</g>
<g>
</g>
<g>
</g>
<g>
</g>
<g>
</g>
<g>
</g>
<g>
</g>
<g>
</g>
</svg>
